<?xml version="1.0" encoding="utf-8"?>

<!DOCTYPE svg PUBLIC "-//W3C//DTD SVG 1.0//EN" "http://www.w3.org/TR/2001/REC-SVG-20010904/DTD/svg10.dtd">
<!-- Uploaded to: SVG Repo, www.svgrepo.com, Generator: SVG Repo Mixer Tools -->
<svg version="1.0" id="Layer_1" xmlns="http://www.w3.org/2000/svg" xmlns:xlink="http://www.w3.org/1999/xlink" 
	 width="800px" height="800px" viewBox="0 0 64 64" enable-background="new 0 0 64 64" xml:space="preserve">
<g>
	<path fill="#231F20" d="M46.154,46.143c-4.369,4.373-5.616,10.631-3.869,16.141c4.51-1.523,8.763-4.053,12.358-7.652
		c3.6-3.596,6.128-7.848,7.652-12.357C56.785,40.529,50.528,41.773,46.154,46.143z"/>
	<path fill="#231F20" d="M17.857,17.846c4.369-4.374,5.612-10.631,3.869-16.143c-4.51,1.524-8.763,4.053-12.362,7.653
		c-3.596,3.596-6.125,7.848-7.653,12.359C7.227,23.457,13.484,22.215,17.857,17.846z"/>
	<path fill="#231F20" d="M29.661,0.085c2.231,8.071,0.195,17.076-6.145,23.422c-6.343,6.336-15.348,8.373-23.419,6.141
		c-0.563,7.703,1.649,15.553,6.632,21.957L51.618,6.722C45.213,1.734,37.36-0.478,29.661,0.085z"/>
	<path fill="#231F20" d="M57.277,12.381L12.394,57.266c6.405,4.986,14.258,7.199,21.957,6.637c-2.231-8.07-0.199-17.076,6.145-23.42
		c6.343-6.34,15.349-8.375,23.419-6.141C64.478,26.639,62.265,18.787,57.277,12.381z"/>
</g>
</svg>