<?xml version="1.0" encoding="utf-8"?>

<!DOCTYPE svg PUBLIC "-//W3C//DTD SVG 1.0//EN" "http://www.w3.org/TR/2001/REC-SVG-20010904/DTD/svg10.dtd">
<!-- Uploaded to: SVG Repo, www.svgrepo.com, Generator: SVG Repo Mixer Tools -->
<svg version="1.0" id="Layer_1" xmlns="http://www.w3.org/2000/svg" xmlns:xlink="http://www.w3.org/1999/xlink" 
	 width="800px" height="800px" viewBox="0 0 64 64" enable-background="new 0 0 64 64" xml:space="preserve">
<g>
	<path fill="#231F20" d="M23.998,15.999C10.745,15.999,0,26.744,0,39.996v0.008v19.998c0,2.203,1.789,4,4,4h19.999
		c0.008,0,0.016-0.008,0.027-0.008c13.237-0.016,23.971-10.753,23.971-23.998C47.996,26.744,37.251,15.999,23.998,15.999z"/>
	<path fill="#231F20" d="M60.479,3.515c-4.683-4.687-12.284-4.687-16.967,0l-7.019,7.019c7.62,3.238,13.729,9.347,16.967,16.971
		l7.019-7.022C65.166,15.799,65.166,8.202,60.479,3.515z"/>
</g>
</svg>