<?xml version="1.0" encoding="utf-8"?>

<!DOCTYPE svg PUBLIC "-//W3C//DTD SVG 1.0//EN" "http://www.w3.org/TR/2001/REC-SVG-20010904/DTD/svg10.dtd">
<!-- Uploaded to: SVG Repo, www.svgrepo.com, Generator: SVG Repo Mixer Tools -->
<svg version="1.0" id="Layer_1" xmlns="http://www.w3.org/2000/svg" xmlns:xlink="http://www.w3.org/1999/xlink" 
	 width="800px" height="800px" viewBox="0 0 64 64" enable-background="new 0 0 64 64" xml:space="preserve">
<path fill="#231F20" d="M61.984,32.527L47.379,24.18C47.742,22.84,48,21.457,48,20c0-8.836-7.164-16-16-16s-16,7.164-16,16
	c0,3.672,1.289,7.016,3.371,9.719L0.844,53.543c-1.359,1.746-1.043,4.258,0.699,5.613C2.274,59.727,3.141,60,3.997,60
	c1.191,0,2.371-0.531,3.16-1.543L25.652,34.68C27.602,35.523,29.742,36,32,36c4.496,0,8.543-1.867,11.449-4.852l14.566,8.324
	c1.918,1.102,4.359,0.426,5.457-1.488C64.572,36.066,63.902,33.625,61.984,32.527z"/>
</svg>