<?xml version="1.0" encoding="utf-8"?>

<!DOCTYPE svg PUBLIC "-//W3C//DTD SVG 1.0//EN" "http://www.w3.org/TR/2001/REC-SVG-20010904/DTD/svg10.dtd">
<!-- Uploaded to: SVG Repo, www.svgrepo.com, Generator: SVG Repo Mixer Tools -->
<svg version="1.0" id="Layer_1" xmlns="http://www.w3.org/2000/svg" xmlns:xlink="http://www.w3.org/1999/xlink" 
	 width="800px" height="800px" viewBox="0 0 64 64" enable-background="new 0 0 64 64" xml:space="preserve">
<path fill="#231F20" d="M62.102,12.59c-1.176-0.73-2.645-0.793-3.891-0.176L48,17.516V12c0-2.211-1.789-4-4-4H4
	c-2.211,0-4,1.789-4,4v40c0,2.203,1.789,4,4,4h40c2.211,0,4-1.797,4-4v-5.535l10.211,5.105c0.566,0.281,1.176,0.422,1.789,0.422
	c0.73,0,1.461-0.199,2.102-0.598c1.18-0.73,1.898-2.016,1.898-3.402v-32C64,14.605,63.281,13.32,62.102,12.59z"/>
</svg>