<?xml version="1.0" encoding="utf-8"?>

<!DOCTYPE svg PUBLIC "-//W3C//DTD SVG 1.0//EN" "http://www.w3.org/TR/2001/REC-SVG-20010904/DTD/svg10.dtd">
<!-- Uploaded to: SVG Repo, www.svgrepo.com, Generator: SVG Repo Mixer Tools -->
<svg version="1.0" id="Layer_1" xmlns="http://www.w3.org/2000/svg" xmlns:xlink="http://www.w3.org/1999/xlink" 
	 width="800px" height="800px" viewBox="0 0 64 64" enable-background="new 0 0 64 64" xml:space="preserve">
<path fill="#231F20" d="M60,0h-4c-2.211,0-4,1.789-4,4s1.789,4,4,4v26.219C53.637,32.844,50.93,32,48,32h-4
	c-4.805,0-9.066,2.164-12,5.52C29.066,34.164,24.805,32,20,32h-4c-2.93,0-5.637,0.844-8,2.219V8c2.211,0,4-1.789,4-4s-1.789-4-4-4H4
	C1.789,0,0,1.789,0,4v44c0,8.836,7.164,16,16,16h4c4.805,0,9.066-2.164,12-5.52C34.934,61.836,39.195,64,44,64h4
	c8.836,0,16-7.164,16-16V4C64,1.789,62.211,0,60,0z"/>
</svg>