<?xml version="1.0" encoding="utf-8"?>

<!DOCTYPE svg PUBLIC "-//W3C//DTD SVG 1.0//EN" "http://www.w3.org/TR/2001/REC-SVG-20010904/DTD/svg10.dtd">
<!-- Uploaded to: SVG Repo, www.svgrepo.com, Generator: SVG Repo Mixer Tools -->
<svg version="1.0" id="Layer_1" xmlns="http://www.w3.org/2000/svg" xmlns:xlink="http://www.w3.org/1999/xlink" 
	 width="800px" height="800px" viewBox="0 0 64 64" enable-background="new 0 0 64 64" xml:space="preserve">
<path fill="#231F20" d="M52,0h-8H12C9.789,0,8,1.789,8,4v56c0,2.211,1.789,4,4,4h40c2.211,0,4-1.789,4-4V4C56,1.789,54.211,0,52,0z
	 M32,56c-2.211,0-4-1.789-4-4s1.789-4,4-4s4,1.789,4,4S34.211,56,32,56z M36,16h-8c-2.211,0-4-1.789-4-4s1.789-4,4-4h8
	c2.211,0,4,1.789,4,4S38.211,16,36,16z"/>
</svg>