<?xml version="1.0" encoding="utf-8"?>

<!DOCTYPE svg PUBLIC "-//W3C//DTD SVG 1.0//EN" "http://www.w3.org/TR/2001/REC-SVG-20010904/DTD/svg10.dtd">
<!-- Uploaded to: SVG Repo, www.svgrepo.com, Generator: SVG Repo Mixer Tools -->
<svg version="1.0" id="Layer_1" xmlns="http://www.w3.org/2000/svg" xmlns:xlink="http://www.w3.org/1999/xlink" 
	 width="800px" height="800px" viewBox="0 0 64 64" enable-background="new 0 0 64 64" xml:space="preserve">
<path fill="#231F20" d="M62.823,6.826c1.145-1.145,1.488-2.863,0.867-4.359c-0.617-1.496-2.077-2.469-3.694-2.469H4.001
	c-1.617,0-3.078,0.973-3.695,2.469c-0.621,1.496-0.277,3.214,0.867,4.359l26.826,26.826v22.35h-8C17.789,56.001,16,57.79,16,60
	c0,2.203,1.789,4,3.999,4h23.998c2.211,0,4-1.797,4-4c0-2.21-1.789-3.999-4-3.999h-7.999v-22.35L62.823,6.826z"/>
</svg>