<?xml version="1.0" encoding="utf-8"?>

<!DOCTYPE svg PUBLIC "-//W3C//DTD SVG 1.0//EN" "http://www.w3.org/TR/2001/REC-SVG-20010904/DTD/svg10.dtd">
<!-- Uploaded to: SVG Repo, www.svgrepo.com, Generator: SVG Repo Mixer Tools -->
<svg version="1.0" id="Layer_1" xmlns="http://www.w3.org/2000/svg" xmlns:xlink="http://www.w3.org/1999/xlink" 
	 width="800px" height="800px" viewBox="0 0 64 64" enable-background="new 0 0 64 64" xml:space="preserve">
<path fill="#231F20" d="M60,24H36V4c0-2.211-1.789-4-4-4s-4,1.789-4,4v20H4c-2.211,0-4,1.789-4,4v32c0,2.211,1.789,4,4,4h56
	c2.211,0,4-1.789,4-4V28C64,25.789,62.211,24,60,24z M20,48c-2.211,0-4-1.789-4-4s1.789-4,4-4s4,1.789,4,4S22.211,48,20,48z M32,48
	c-2.211,0-4-1.789-4-4s1.789-4,4-4s4,1.789,4,4S34.211,48,32,48z M44,48c-2.211,0-4-1.789-4-4s1.789-4,4-4s4,1.789,4,4
	S46.211,48,44,48z"/>
</svg>