<?xml version="1.0" encoding="utf-8"?>

<!DOCTYPE svg PUBLIC "-//W3C//DTD SVG 1.0//EN" "http://www.w3.org/TR/2001/REC-SVG-20010904/DTD/svg10.dtd">
<!-- Uploaded to: SVG Repo, www.svgrepo.com, Generator: SVG Repo Mixer Tools -->
<svg version="1.0" id="Layer_1" xmlns="http://www.w3.org/2000/svg" xmlns:xlink="http://www.w3.org/1999/xlink" 
	 width="800px" height="800px" viewBox="0 0 64 64" enable-background="new 0 0 64 64" xml:space="preserve">
<g>
	<path fill="#231F20" d="M60,28h-8c-2.211,0-4,1.789-4,4s1.789,4,4,4h8c2.211,0,4-1.789,4-4S62.211,28,60,28z"/>
	<path fill="#231F20" d="M49.711,19.465l6.93-4c1.914-1.105,2.57-3.551,1.461-5.465C57,8.086,54.555,7.43,52.641,8.535l-6.93,4
		c-1.914,1.105-2.57,3.551-1.461,5.465C45.352,19.914,47.797,20.57,49.711,19.465z"/>
	<path fill="#231F20" d="M56.641,48.535l-6.93-4C47.797,43.43,45.355,44.086,44.25,46s-0.453,4.359,1.461,5.465l6.93,4
		C54.555,56.57,57,55.914,58.105,54S58.555,49.641,56.641,48.535z"/>
	<path fill="#231F20" d="M28,0H12c-0.52,0-1.039,0.105-1.527,0.309C9.98,0.512,9.535,0.805,9.164,1.18C8.766,1.578,0,12,0,32
		s8.316,29.688,8.672,30.219c0.113,0.172,0.262,0.309,0.395,0.457c0.062,0.066,0.109,0.137,0.176,0.199
		c0.328,0.316,0.699,0.562,1.102,0.742c0.086,0.047,0.176,0.07,0.266,0.102C11.055,63.883,11.52,64,11.992,64C11.996,64,12,64,12,64
		h16c2.211,0,4-1.789,4-4V44c0-2.211-1.789-4-4-4h-4V24h4c2.211,0,4-1.789,4-4V4C32,1.789,30.211,0,28,0z"/>
</g>
</svg>