<?xml version="1.0" encoding="utf-8"?>

<!DOCTYPE svg PUBLIC "-//W3C//DTD SVG 1.0//EN" "http://www.w3.org/TR/2001/REC-SVG-20010904/DTD/svg10.dtd">
<!-- Uploaded to: SVG Repo, www.svgrepo.com, Generator: SVG Repo Mixer Tools -->
<svg version="1.0" id="Layer_1" xmlns="http://www.w3.org/2000/svg" xmlns:xlink="http://www.w3.org/1999/xlink" 
	 width="800px" height="800px" viewBox="0 0 64 64" enable-background="new 0 0 64 64" xml:space="preserve">
<path fill="#231F20" d="M60,16h-8V4c0-2.211-1.789-4-4-4H16c-2.211,0-4,1.789-4,4v12H4c-2.211,0-4,1.789-4,4v32c0,2.211,1.789,4,4,4
	h8v4c0,2.211,1.789,4,4,4h32c2.211,0,4-1.789,4-4v-4h8c2.211,0,4-1.789,4-4V20C64,17.789,62.211,16,60,16z M20,8h24v8H20V8z M44,56
	H20V40h24V56z"/>
</svg>