<?xml version="1.0" encoding="utf-8"?>

<!DOCTYPE svg PUBLIC "-//W3C//DTD SVG 1.0//EN" "http://www.w3.org/TR/2001/REC-SVG-20010904/DTD/svg10.dtd">
<!-- Uploaded to: SVG Repo, www.svgrepo.com, Generator: SVG Repo Mixer Tools -->
<svg version="1.0" id="Layer_1" xmlns="http://www.w3.org/2000/svg" xmlns:xlink="http://www.w3.org/1999/xlink" 
	 width="800px" height="800px" viewBox="0 0 64 64" enable-background="new 0 0 64 64" xml:space="preserve">
<path fill="#231F20" d="M62.833,17.987L46.014,1.164c-1.552-1.547-4.06-1.547-5.607,0L29.193,12.381l8.408,8.408
	c1.551,1.555,1.551,4.06,0,5.606c-1.548,1.547-4.056,1.547-5.604,0l-8.411-8.408l-5.604,5.603l8.408,8.412
	c1.547,1.548,1.547,4.056,0,5.607c-1.551,1.547-4.06,1.547-5.606,0l-8.408-8.412L1.16,40.41c-1.547,1.548-1.547,4.06,0,5.607
	l16.824,16.819c1.548,1.552,4.056,1.552,5.604,0L62.833,23.59C64.381,22.043,64.381,19.535,62.833,17.987z"/>
</svg>