<?xml version="1.0" encoding="utf-8"?>

<!DOCTYPE svg PUBLIC "-//W3C//DTD SVG 1.0//EN" "http://www.w3.org/TR/2001/REC-SVG-20010904/DTD/svg10.dtd">
<!-- Uploaded to: SVG Repo, www.svgrepo.com, Generator: SVG Repo Mixer Tools -->
<svg version="1.0" id="Layer_1" xmlns="http://www.w3.org/2000/svg" xmlns:xlink="http://www.w3.org/1999/xlink" 
	 width="800px" height="800px" viewBox="0 0 64 64" enable-background="new 0 0 64 64" xml:space="preserve">
<g>
	<path fill="#231F20" d="M8,60c0,2.211,1.789,4,4,4h40c2.211,0,4-1.789,4-4V24H8V60z M32,44c2.211,0,4,1.793,4,4
		c0,2.211-1.789,4-4,4s-4-1.789-4-4C28,45.793,29.789,44,32,44z"/>
	<path fill="#231F20" d="M52,0H12C9.789,0,8,1.793,8,4v12h48V4C56,1.793,54.211,0,52,0z"/>
</g>
</svg>