<?xml version="1.0" encoding="utf-8"?>

<!DOCTYPE svg PUBLIC "-//W3C//DTD SVG 1.0//EN" "http://www.w3.org/TR/2001/REC-SVG-20010904/DTD/svg10.dtd">
<!-- Uploaded to: SVG Repo, www.svgrepo.com, Generator: SVG Repo Mixer Tools -->
<svg fill="#000000" version="1.0" id="Layer_1" xmlns="http://www.w3.org/2000/svg" xmlns:xlink="http://www.w3.org/1999/xlink" 
	 width="800px" height="800px" viewBox="0 0 64 64" enable-background="new 0 0 64 64" xml:space="preserve">
<g>
	<circle cx="32" cy="32" r="8"/>
	<path d="M61.395,19.383C63,17.34,64,14.797,64,12c0-6.629-5.375-12-12-12c-2.805,0-5.348,1-7.391,2.613
		c-3.871-1.66-8.133-2.59-12.609-2.59s-8.738,0.93-12.609,2.59C17.348,1,14.805,0,12,0C5.375,0,0,5.371,0,12
		c0,2.797,1,5.34,2.605,7.383C0.938,23.254,0.004,27.516,0,32c0.004,4.484,0.938,8.746,2.605,12.617C1,46.664,0,49.203,0,52
		c0,6.629,5.375,12,12,12c2.805,0,5.348-1,7.391-2.613c3.871,1.66,8.133,2.59,12.609,2.59s8.738-0.93,12.609-2.59
		C46.652,63,49.195,64,52,64c6.625,0,12-5.371,12-12c0-2.797-1-5.336-2.605-7.383C63.062,40.746,63.996,36.484,64,32
		C63.996,27.516,63.062,23.254,61.395,19.383z M32,48c-8.836,0-16-7.164-16-16s7.164-16,16-16s16,7.164,16,16S40.836,48,32,48z"/>
</g>
</svg>