<?xml version="1.0" encoding="utf-8"?>

<!DOCTYPE svg PUBLIC "-//W3C//DTD SVG 1.0//EN" "http://www.w3.org/TR/2001/REC-SVG-20010904/DTD/svg10.dtd">
<!-- Uploaded to: SVG Repo, www.svgrepo.com, Generator: SVG Repo Mixer Tools -->
<svg version="1.0" id="Layer_1" xmlns="http://www.w3.org/2000/svg" xmlns:xlink="http://www.w3.org/1999/xlink" 
	 width="800px" height="800px" viewBox="0 0 64 64" enable-background="new 0 0 64 64" xml:space="preserve">
<g>
	<path fill="#231F20" d="M60,0H44c-3.938,0-4.375,2.758-5.027,3.918C37.602,6.352,34.992,8,32,8c-2.965,0-5.551-1.617-6.934-4.012
		C24.391,2.816,24,0,20,0H4C1.789,0,0,1.785,0,4v16c0,2.207,1.789,4,4,4h8v36c0,2.207,1.789,4,4,4h32c2.211,0,4-1.793,4-4V24h8
		c2.211,0,4-1.793,4-4V4C64,1.785,62.211,0,60,0z"/>
</g>
</svg>