<?xml version="1.0" encoding="utf-8"?>

<!DOCTYPE svg PUBLIC "-//W3C//DTD SVG 1.0//EN" "http://www.w3.org/TR/2001/REC-SVG-20010904/DTD/svg10.dtd">
<!-- Uploaded to: SVG Repo, www.svgrepo.com, Generator: SVG Repo Mixer Tools -->
<svg version="1.0" id="Layer_1" xmlns="http://www.w3.org/2000/svg" xmlns:xlink="http://www.w3.org/1999/xlink" 
	 width="800px" height="800px" viewBox="0 0 64 64" enable-background="new 0 0 64 64" xml:space="preserve">
<g>
	<path fill-rule="evenodd" clip-rule="evenodd" fill="#231F20" d="M4,4C1.789,4,0,5.789,0,8v8c0,8.836,7.164,16,16,16h3.238
		C23.391,39.164,31.121,44,40,44c13.254,0,24-10.746,24-24V4H4z M16,24c-4.418,0-8-3.582-8-8v-4h8v8c0,1.367,0.141,2.695,0.359,4H16
		z"/>
	<path fill-rule="evenodd" clip-rule="evenodd" fill="#231F20" d="M60,52H20c-2.211,0-4,1.789-4,4s1.789,4,4,4h40
		c2.211,0,4-1.789,4-4S62.211,52,60,52z"/>
</g>
</svg>