<?xml version="1.0" encoding="utf-8"?>

<!DOCTYPE svg PUBLIC "-//W3C//DTD SVG 1.0//EN" "http://www.w3.org/TR/2001/REC-SVG-20010904/DTD/svg10.dtd">
<!-- Uploaded to: SVG Repo, www.svgrepo.com, Generator: SVG Repo Mixer Tools -->
<svg version="1.0" id="Layer_1" xmlns="http://www.w3.org/2000/svg" xmlns:xlink="http://www.w3.org/1999/xlink" 
	 width="800px" height="800px" viewBox="0 0 64 64" enable-background="new 0 0 64 64" xml:space="preserve">
<path fill="#231F20" d="M55.639,46.344L35.641,2.342c-0.648-1.426-2.07-2.344-3.642-2.344c-1.57,0-2.992,0.918-3.641,2.344
	l-20,44.001c-0.562,1.238-0.457,2.68,0.277,3.82C9.374,51.309,10.64,52,11.999,52h16v8c0,2.211,1.789,4,4,4
	C34.211,64,36,62.211,36,60v-8h15.998c1.359,0,2.625-0.691,3.367-1.836C56.1,49.023,56.201,47.582,55.639,46.344z"/>
</svg>